<?xml version="1.0" standalone="no"?>
<!DOCTYPE svg PUBLIC "-//W3C//DTD SVG 20010904//EN"
 "http://www.w3.org/TR/2001/REC-SVG-20010904/DTD/svg10.dtd">
<svg version="1.0" xmlns="http://www.w3.org/2000/svg"
 width="700.000000pt" height="700.000000pt" viewBox="0 0 700.000000 700.000000"
 preserveAspectRatio="xMidYMid meet">
<metadata>
Created by potrace 1.11, written by Peter Selinger 2001-2013
</metadata>
<g transform="translate(0.000000,700.000000) scale(0.100000,-0.100000)"
fill="#000000" stroke="none">
<path d="M2049 6995 c-2 -2 -42 -6 -88 -9 -309 -23 -390 -32 -436 -52 -17 -7
-59 -17 -95 -24 -62 -11 -157 -41 -300 -93 -68 -26 -160 -73 -245 -125 -27
-17 -77 -47 -109 -67 -87 -53 -274 -231 -357 -341 -53 -69 -169 -257 -169
-274 0 -6 -9 -28 -19 -48 -27 -51 -69 -170 -76 -212 -3 -19 -12 -57 -19 -85
-24 -86 -33 -162 -41 -340 -4 -71 -8 -146 -10 -165 -26 -229 -27 -3024 -1
-3155 2 -11 7 -76 11 -145 13 -236 17 -285 40 -390 10 -48 13 -65 20 -130 4
-36 15 -92 26 -125 10 -33 21 -76 24 -95 3 -19 15 -54 26 -79 10 -24 19 -49
19 -55 0 -6 14 -38 30 -71 16 -33 30 -64 30 -70 0 -9 46 -83 68 -110 4 -5 28
-37 52 -70 60 -82 192 -211 270 -264 158 -108 243 -160 277 -170 16 -5 62 -25
104 -44 42 -20 102 -43 135 -52 32 -8 79 -22 104 -30 25 -8 81 -22 125 -31 44
-9 100 -20 125 -25 75 -16 90 -17 215 -24 66 -4 140 -8 165 -11 129 -11 255
-12 340 -3 52 5 127 12 165 14 130 9 180 16 230 30 28 8 66 17 85 20 64 10 95
17 105 24 6 4 64 25 130 46 66 21 136 49 155 60 19 12 71 41 115 65 44 24 97
55 119 69 21 14 51 33 66 42 56 31 106 75 245 214 104 105 154 164 194 229 60
97 121 217 121 236 0 7 11 43 25 81 13 38 27 90 31 116 3 26 10 59 15 72 5 13
12 39 15 59 3 19 7 43 9 53 2 9 7 62 10 116 4 54 8 100 10 103 20 33 53 1111
35 1140 -9 15 -1701 20 -1705 5 -2 -5 -6 -289 -9 -630 -4 -558 -8 -684 -20
-750 -16 -85 -42 -166 -64 -197 -43 -65 -163 -128 -241 -128 -45 0 -150 37
-203 71 -40 26 -56 44 -75 87 -13 29 -26 70 -29 90 -3 20 -10 66 -16 102 -5
36 -12 79 -13 95 -22 192 -23 3858 -1 3893 2 4 8 35 11 67 10 85 21 135 50
212 28 73 78 129 125 139 14 4 50 12 81 20 77 19 115 18 184 -6 73 -25 97 -40
130 -84 28 -37 63 -144 70 -216 4 -45 15 -756 19 -1302 1 -164 6 -301 10 -305
4 -4 385 -9 847 -11 800 -3 840 -2 847 15 13 32 3 969 -13 1217 -5 81 -16 190
-20 196 -2 3 -6 44 -9 92 -8 97 -12 126 -28 183 -15 52 -17 62 -24 110 -4 22
-13 60 -21 85 -8 25 -21 70 -29 100 -8 30 -21 61 -28 70 -8 8 -17 26 -21 40
-14 46 -88 167 -153 250 -83 106 -232 242 -324 298 -16 9 -28 20 -28 24 0 4
-35 26 -77 48 -43 21 -89 46 -103 54 -63 38 -237 111 -300 126 -25 6 -70 20
-100 30 -30 10 -82 23 -115 30 -33 7 -89 18 -125 25 -36 7 -103 16 -150 19
-47 4 -105 9 -130 11 -120 12 -171 16 -241 20 -43 2 -79 2 -80 0z"/>
<path d="M5221 4876 c-1 -1090 -3 -2275 -3 -2634 l-1 -653 -35 -71 c-57 -116
-166 -207 -275 -227 -29 -5 -115 -10 -192 -10 -77 1 -145 0 -150 0 -12 -1 -14
-1125 -3 -1137 4 -4 248 -6 542 -6 488 1 636 4 706 17 14 2 50 7 80 10 30 3
66 8 80 10 14 2 54 7 90 10 86 8 285 67 370 110 82 41 198 133 262 206 45 51
138 192 138 209 0 4 11 32 24 61 13 30 27 74 31 99 4 25 16 83 28 130 20 85
20 88 21 2968 l1 2882 -110 1 c-60 0 -446 2 -856 3 l-747 3 -1 -1981z"/>
</g>
</svg>
