<svg xmlns="http://www.w3.org/2000/svg" xmlns:xlink="http://www.w3.org/1999/xlink" width="500" height="500" viewBox="0 0 500 500">
  <defs>
    <clipPath id="clip-user">
      <rect width="500" height="500"/>
    </clipPath>
  </defs>
  <g id="user" clip-path="url(#clip-user)">
    <rect width="500" height="500" fill="#556080"/>
    <g id="user-2" data-name="user" transform="translate(158.927 -20.22)">
      <path id="Path_1" data-name="Path 1" d="M118.491,347.476l-80,43.64C33.792,393.675-9.7,412.471-9.7,463.308H405.673c0-47.238-44.68-69.046-49.84-71.616l-85.671-42.83A32.67,32.67,0,0,1,252.1,319.64V286.028a129.4,129.4,0,0,0,8.1-10.422,197.126,197.126,0,0,0,26.631-53.667,26.908,26.908,0,0,0,19.083-25.6V160.462a26.785,26.785,0,0,0-8.965-19.882V88.714S307.61,8,198.3,8,99.651,88.714,99.651,88.714v51.866a26.749,26.749,0,0,0-8.965,19.882V196.34a26.9,26.9,0,0,0,12.4,22.574c8.965,39.026,32.439,67.114,32.439,67.114v32.783A32.7,32.7,0,0,1,118.491,347.476Z" transform="translate(-106.742 66.828)" fill="#e7eced"/>
    </g>
  </g>
</svg>
